<mxfile host="app.diagrams.net" modified="2022-03-26T06:37:06.659Z" agent="5.0 (Macintosh; Intel Mac OS X 10_15_7) AppleWebKit/537.36 (KHTML, like Gecko) Chrome/99.0.4844.74 Safari/537.36" etag="2dGP-nUQrlu-PcE7QTSd" version="15.3.0" type="github">
  <diagram id="_cABMQ0OlNdnMv84k5yF" name="第 1 页">
    <mxGraphModel dx="786" dy="417" grid="1" gridSize="10" guides="1" tooltips="1" connect="1" arrows="1" fold="1" page="1" pageScale="1" pageWidth="827" pageHeight="1169" math="0" shadow="0">
      <root>
        <mxCell id="0" />
        <mxCell id="1" parent="0" />
        <mxCell id="KqUE6P-rDcpR1gRXSqEG-11" style="edgeStyle=orthogonalEdgeStyle;rounded=0;orthogonalLoop=1;jettySize=auto;html=1;" edge="1" parent="1" source="KqUE6P-rDcpR1gRXSqEG-1" target="KqUE6P-rDcpR1gRXSqEG-3">
          <mxGeometry relative="1" as="geometry" />
        </mxCell>
        <mxCell id="KqUE6P-rDcpR1gRXSqEG-1" value="&lt;font style=&quot;vertical-align: inherit&quot;&gt;&lt;font style=&quot;vertical-align: inherit&quot;&gt;&lt;font style=&quot;vertical-align: inherit&quot;&gt;&lt;font style=&quot;vertical-align: inherit&quot;&gt;&lt;font style=&quot;vertical-align: inherit&quot;&gt;&lt;font style=&quot;vertical-align: inherit&quot;&gt;&lt;font style=&quot;vertical-align: inherit&quot;&gt;&lt;font style=&quot;vertical-align: inherit&quot;&gt;&lt;font style=&quot;vertical-align: inherit&quot;&gt;&lt;font style=&quot;vertical-align: inherit&quot;&gt;所有脚本&lt;/font&gt;&lt;/font&gt;&lt;/font&gt;&lt;/font&gt;&lt;/font&gt;&lt;/font&gt;&lt;/font&gt;&lt;/font&gt;&lt;/font&gt;&lt;/font&gt;" style="text;html=1;strokeColor=none;fillColor=none;align=center;verticalAlign=middle;whiteSpace=wrap;rounded=0;" vertex="1" parent="1">
          <mxGeometry x="295" y="40" width="70" height="20" as="geometry" />
        </mxCell>
        <mxCell id="KqUE6P-rDcpR1gRXSqEG-12" style="edgeStyle=orthogonalEdgeStyle;rounded=0;orthogonalLoop=1;jettySize=auto;html=1;" edge="1" parent="1" source="KqUE6P-rDcpR1gRXSqEG-3" target="KqUE6P-rDcpR1gRXSqEG-7">
          <mxGeometry relative="1" as="geometry" />
        </mxCell>
        <mxCell id="KqUE6P-rDcpR1gRXSqEG-3" value="&lt;font style=&quot;vertical-align: inherit&quot;&gt;&lt;font style=&quot;vertical-align: inherit&quot;&gt;spark-class&lt;/font&gt;&lt;/font&gt;" style="text;html=1;align=center;verticalAlign=middle;resizable=0;points=[];autosize=1;strokeColor=none;fillColor=#40FF59;" vertex="1" parent="1">
          <mxGeometry x="290" y="90" width="80" height="20" as="geometry" />
        </mxCell>
        <mxCell id="KqUE6P-rDcpR1gRXSqEG-15" style="edgeStyle=orthogonalEdgeStyle;rounded=0;orthogonalLoop=1;jettySize=auto;html=1;" edge="1" parent="1" source="KqUE6P-rDcpR1gRXSqEG-5" target="KqUE6P-rDcpR1gRXSqEG-10">
          <mxGeometry relative="1" as="geometry" />
        </mxCell>
        <mxCell id="KqUE6P-rDcpR1gRXSqEG-5" value="&lt;span style=&quot;color: rgb(51 , 51 , 51) ; font-family: &amp;#34;open sans&amp;#34; , &amp;#34;clear sans&amp;#34; , &amp;#34;helvetica neue&amp;#34; , &amp;#34;helvetica&amp;#34; , &amp;#34;arial&amp;#34; , &amp;#34;segoe ui emoji&amp;#34; , sans-serif ; font-size: 16px ; font-weight: bold ; background-color: rgb(255 , 255 , 255)&quot;&gt;&lt;font style=&quot;vertical-align: inherit&quot;&gt;&lt;font style=&quot;vertical-align: inherit&quot;&gt;SparkClassCommandBuilder&lt;/font&gt;&lt;/font&gt;&lt;/span&gt;" style="text;html=1;align=center;verticalAlign=middle;resizable=0;points=[];autosize=1;strokeColor=default;fillColor=none;glass=1;" vertex="1" parent="1">
          <mxGeometry x="100" y="250" width="240" height="20" as="geometry" />
        </mxCell>
        <mxCell id="KqUE6P-rDcpR1gRXSqEG-16" style="edgeStyle=orthogonalEdgeStyle;rounded=0;orthogonalLoop=1;jettySize=auto;html=1;entryX=0.5;entryY=0;entryDx=0;entryDy=0;" edge="1" parent="1" source="KqUE6P-rDcpR1gRXSqEG-6" target="KqUE6P-rDcpR1gRXSqEG-10">
          <mxGeometry relative="1" as="geometry" />
        </mxCell>
        <mxCell id="KqUE6P-rDcpR1gRXSqEG-6" value="&lt;span style=&quot;color: rgb(51, 51, 51); font-family: &amp;quot;open sans&amp;quot;, &amp;quot;clear sans&amp;quot;, &amp;quot;helvetica neue&amp;quot;, helvetica, arial, &amp;quot;segoe ui emoji&amp;quot;, sans-serif; font-size: 16px; font-style: normal; font-weight: bold; letter-spacing: normal; text-indent: 0px; text-transform: none; word-spacing: 0px; background-color: rgb(255, 255, 255); text-decoration: none; display: inline; float: none;&quot;&gt;SparkSubmitCommandBuilder&lt;/span&gt;" style="text;html=1;strokeColor=default;fillColor=none;align=center;verticalAlign=middle;whiteSpace=wrap;rounded=0;glass=1;" vertex="1" parent="1">
          <mxGeometry x="410" y="250" width="250" height="20" as="geometry" />
        </mxCell>
        <mxCell id="KqUE6P-rDcpR1gRXSqEG-13" style="edgeStyle=orthogonalEdgeStyle;rounded=0;orthogonalLoop=1;jettySize=auto;html=1;" edge="1" parent="1" source="KqUE6P-rDcpR1gRXSqEG-7" target="KqUE6P-rDcpR1gRXSqEG-5">
          <mxGeometry relative="1" as="geometry" />
        </mxCell>
        <mxCell id="KqUE6P-rDcpR1gRXSqEG-14" style="edgeStyle=orthogonalEdgeStyle;rounded=0;orthogonalLoop=1;jettySize=auto;html=1;" edge="1" parent="1" source="KqUE6P-rDcpR1gRXSqEG-7" target="KqUE6P-rDcpR1gRXSqEG-6">
          <mxGeometry relative="1" as="geometry" />
        </mxCell>
        <mxCell id="KqUE6P-rDcpR1gRXSqEG-7" value="&lt;h1 class=&quot;md-end-block md-heading md-focus&quot; style=&quot;box-sizing: border-box ; margin-top: 1rem ; margin-bottom: 1rem ; position: relative ; line-height: 1.2 ; cursor: text ; border-bottom: 1px solid rgb(238 , 238 , 238) ; color: rgb(51 , 51 , 51) ; font-family: &amp;#34;open sans&amp;#34; , &amp;#34;clear sans&amp;#34; , &amp;#34;helvetica neue&amp;#34; , &amp;#34;helvetica&amp;#34; , &amp;#34;arial&amp;#34; , &amp;#34;segoe ui emoji&amp;#34; , sans-serif ; background-color: rgb(255 , 255 , 255)&quot;&gt;&lt;span class=&quot;md-plain md-expand&quot; style=&quot;box-sizing: border-box ; font-weight: normal&quot;&gt;&lt;font style=&quot;vertical-align: inherit&quot;&gt;&lt;font style=&quot;vertical-align: inherit&quot;&gt;&lt;font style=&quot;vertical-align: inherit&quot;&gt;&lt;font style=&quot;vertical-align: inherit ; font-size: 17px&quot;&gt;org.apache.spark.launcher.Main&lt;/font&gt;&lt;/font&gt;&lt;/font&gt;&lt;/font&gt;&lt;/span&gt;&lt;/h1&gt;" style="text;html=1;align=center;verticalAlign=middle;resizable=0;points=[];autosize=1;strokeColor=default;fillColor=none;" vertex="1" parent="1">
          <mxGeometry x="200" y="140" width="260" height="70" as="geometry" />
        </mxCell>
        <mxCell id="KqUE6P-rDcpR1gRXSqEG-8" value="Text" style="text;html=1;strokeColor=none;fillColor=none;align=center;verticalAlign=middle;whiteSpace=wrap;rounded=0;glass=1;" vertex="1" parent="1">
          <mxGeometry x="380" y="150" width="40" height="20" as="geometry" />
        </mxCell>
        <mxCell id="KqUE6P-rDcpR1gRXSqEG-17" style="edgeStyle=orthogonalEdgeStyle;rounded=0;orthogonalLoop=1;jettySize=auto;html=1;entryX=0.988;entryY=0.35;entryDx=0;entryDy=0;entryPerimeter=0;" edge="1" parent="1" source="KqUE6P-rDcpR1gRXSqEG-10" target="KqUE6P-rDcpR1gRXSqEG-3">
          <mxGeometry relative="1" as="geometry">
            <Array as="points">
              <mxPoint x="690" y="320" />
              <mxPoint x="690" y="97" />
            </Array>
          </mxGeometry>
        </mxCell>
        <mxCell id="KqUE6P-rDcpR1gRXSqEG-20" value="返回给spark-class执行" style="edgeLabel;html=1;align=center;verticalAlign=middle;resizable=0;points=[];" vertex="1" connectable="0" parent="KqUE6P-rDcpR1gRXSqEG-17">
          <mxGeometry x="0.5075" y="-3" relative="1" as="geometry">
            <mxPoint as="offset" />
          </mxGeometry>
        </mxCell>
        <mxCell id="KqUE6P-rDcpR1gRXSqEG-19" style="edgeStyle=orthogonalEdgeStyle;rounded=0;orthogonalLoop=1;jettySize=auto;html=1;exitX=0.5;exitY=1;exitDx=0;exitDy=0;" edge="1" parent="1" source="KqUE6P-rDcpR1gRXSqEG-10">
          <mxGeometry relative="1" as="geometry">
            <mxPoint x="370" y="360" as="targetPoint" />
          </mxGeometry>
        </mxCell>
        <mxCell id="KqUE6P-rDcpR1gRXSqEG-10" value="commands" style="text;html=1;strokeColor=default;fillColor=#66FF66;align=center;verticalAlign=middle;whiteSpace=wrap;rounded=0;glass=1;shadow=1;" vertex="1" parent="1">
          <mxGeometry x="340" y="330" width="70" height="20" as="geometry" />
        </mxCell>
        <mxCell id="KqUE6P-rDcpR1gRXSqEG-22" value="" style="rounded=0;whiteSpace=wrap;html=1;shadow=1;glass=1;strokeColor=default;fillColor=none;dashed=1;" vertex="1" parent="1">
          <mxGeometry x="40" y="220" width="720" height="90" as="geometry" />
        </mxCell>
        <mxCell id="KqUE6P-rDcpR1gRXSqEG-23" value="负责拼参数的" style="text;html=1;strokeColor=none;fillColor=none;align=center;verticalAlign=middle;whiteSpace=wrap;rounded=0;shadow=1;glass=1;dashed=1;" vertex="1" parent="1">
          <mxGeometry x="70" y="210" width="40" height="20" as="geometry" />
        </mxCell>
      </root>
    </mxGraphModel>
  </diagram>
</mxfile>
